# Blender 4.1.0
# www.blender.org
mtllib Door.mtl
o Door
v 1.000000 1.000000 0.010000
v 1.000000 1.000000 -0.010000
v 1.000000 -1.000000 0.010000
v 1.000000 -1.000000 -0.010000
v -1.000000 1.000000 0.010000
v -1.000000 1.000000 -0.010000
v -1.000000 -1.000000 0.010000
v -1.000000 -1.000000 -0.010000
v 0.890000 -1.000000 -0.050000
v 0.890000 -1.000000 0.050000
v 0.890000 1.000000 -0.050000
v 0.890000 1.000000 0.050000
v 0.910000 -1.000000 -0.050000
v 0.910000 -1.000000 0.050000
v 0.910000 1.000000 -0.050000
v 0.910000 1.000000 0.050000
v 0.790000 -1.000000 -0.050000
v 0.790000 -1.000000 0.050000
v 0.790000 1.000000 -0.050000
v 0.790000 1.000000 0.050000
v 0.810000 -1.000000 -0.050000
v 0.810000 -1.000000 0.050000
v 0.810000 1.000000 -0.050000
v 0.810000 1.000000 0.050000
v 0.690000 -1.000000 -0.050000
v 0.690000 -1.000000 0.050000
v 0.690000 1.000000 -0.050000
v 0.690000 1.000000 0.050000
v 0.710000 -1.000000 -0.050000
v 0.710000 -1.000000 0.050000
v 0.710000 1.000000 -0.050000
v 0.710000 1.000000 0.050000
v 0.590000 -1.000000 -0.050000
v 0.590000 -1.000000 0.050000
v 0.590000 1.000000 -0.050000
v 0.590000 1.000000 0.050000
v 0.610000 -1.000000 -0.050000
v 0.610000 -1.000000 0.050000
v 0.610000 1.000000 -0.050000
v 0.610000 1.000000 0.050000
v 0.490000 -1.000000 -0.050000
v 0.490000 -1.000000 0.050000
v 0.490000 1.000000 -0.050000
v 0.490000 1.000000 0.050000
v 0.510000 -1.000000 -0.050000
v 0.510000 -1.000000 0.050000
v 0.510000 1.000000 -0.050000
v 0.510000 1.000000 0.050000
v 0.390000 -1.000000 -0.050000
v 0.390000 -1.000000 0.050000
v 0.390000 1.000000 -0.050000
v 0.390000 1.000000 0.050000
v 0.410000 -1.000000 -0.050000
v 0.410000 -1.000000 0.050000
v 0.410000 1.000000 -0.050000
v 0.410000 1.000000 0.050000
v 0.290000 -1.000000 -0.050000
v 0.290000 -1.000000 0.050000
v 0.290000 1.000000 -0.050000
v 0.290000 1.000000 0.050000
v 0.310000 -1.000000 -0.050000
v 0.310000 -1.000000 0.050000
v 0.310000 1.000000 -0.050000
v 0.310000 1.000000 0.050000
v 0.190000 -1.000000 -0.050000
v 0.190000 -1.000000 0.050000
v 0.190000 1.000000 -0.050000
v 0.190000 1.000000 0.050000
v 0.210000 -1.000000 -0.050000
v 0.210000 -1.000000 0.050000
v 0.210000 1.000000 -0.050000
v 0.210000 1.000000 0.050000
v 0.090000 -1.000000 -0.050000
v 0.090000 -1.000000 0.050000
v 0.090000 1.000000 -0.050000
v 0.090000 1.000000 0.050000
v 0.110000 -1.000000 -0.050000
v 0.110000 -1.000000 0.050000
v 0.110000 1.000000 -0.050000
v 0.110000 1.000000 0.050000
v -0.010000 -1.000000 -0.050000
v -0.010000 -1.000000 0.050000
v -0.010000 1.000000 -0.050000
v -0.010000 1.000000 0.050000
v 0.010000 -1.000000 -0.050000
v 0.010000 -1.000000 0.050000
v 0.010000 1.000000 -0.050000
v 0.010000 1.000000 0.050000
v -0.110000 -1.000000 -0.050000
v -0.110000 -1.000000 0.050000
v -0.110000 1.000000 -0.050000
v -0.110000 1.000000 0.050000
v -0.090000 -1.000000 -0.050000
v -0.090000 -1.000000 0.050000
v -0.090000 1.000000 -0.050000
v -0.090000 1.000000 0.050000
v -0.210000 -1.000000 -0.050000
v -0.210000 -1.000000 0.050000
v -0.210000 1.000000 -0.050000
v -0.210000 1.000000 0.050000
v -0.190000 -1.000000 -0.050000
v -0.190000 -1.000000 0.050000
v -0.190000 1.000000 -0.050000
v -0.190000 1.000000 0.050000
v -0.310000 -1.000000 -0.050000
v -0.310000 -1.000000 0.050000
v -0.310000 1.000000 -0.050000
v -0.310000 1.000000 0.050000
v -0.290000 -1.000000 -0.050000
v -0.290000 -1.000000 0.050000
v -0.290000 1.000000 -0.050000
v -0.290000 1.000000 0.050000
v -0.410000 -1.000000 -0.050000
v -0.410000 -1.000000 0.050000
v -0.410000 1.000000 -0.050000
v -0.410000 1.000000 0.050000
v -0.390000 -1.000000 -0.050000
v -0.390000 -1.000000 0.050000
v -0.390000 1.000000 -0.050000
v -0.390000 1.000000 0.050000
v -0.510000 -1.000000 -0.050000
v -0.510000 -1.000000 0.050000
v -0.510000 1.000000 -0.050000
v -0.510000 1.000000 0.050000
v -0.490000 -1.000000 -0.050000
v -0.490000 -1.000000 0.050000
v -0.490000 1.000000 -0.050000
v -0.490000 1.000000 0.050000
v -0.710000 -1.000000 -0.050000
v -0.710000 -1.000000 0.050000
v -0.710000 1.000000 -0.050000
v -0.710000 1.000000 0.050000
v -0.690000 -1.000000 -0.050000
v -0.690000 -1.000000 0.050000
v -0.690000 1.000000 -0.050000
v -0.690000 1.000000 0.050000
v -0.610000 -1.000000 -0.050000
v -0.610000 -1.000000 0.050000
v -0.610000 1.000000 -0.050000
v -0.610000 1.000000 0.050000
v -0.590000 -1.000000 -0.050000
v -0.590000 -1.000000 0.050000
v -0.590000 1.000000 -0.050000
v -0.590000 1.000000 0.050000
v -0.710000 -1.000000 -0.050000
v -0.710000 -1.000000 0.050000
v -0.710000 1.000000 -0.050000
v -0.710000 1.000000 0.050000
v -0.690000 -1.000000 -0.050000
v -0.690000 -1.000000 0.050000
v -0.690000 1.000000 -0.050000
v -0.690000 1.000000 0.050000
v -0.810000 -1.000000 -0.050000
v -0.810000 -1.000000 0.050000
v -0.810000 1.000000 -0.050000
v -0.810000 1.000000 0.050000
v -0.790000 -1.000000 -0.050000
v -0.790000 -1.000000 0.050000
v -0.790000 1.000000 -0.050000
v -0.790000 1.000000 0.050000
v -0.910000 -1.000000 -0.050000
v -0.910000 -1.000000 0.050000
v -0.910000 1.000000 -0.050000
v -0.910000 1.000000 0.050000
v -0.890000 -1.000000 -0.050000
v -0.890000 -1.000000 0.050000
v -0.890000 1.000000 -0.050000
v -0.890000 1.000000 0.050000
v 0.950000 -1.050000 0.060000
v 0.950000 -0.950000 0.060000
v 0.950000 -1.050000 -0.040000
v 0.950000 -0.950000 -0.040000
v 1.050000 -1.050000 0.060000
v 1.050000 -0.950000 0.060000
v 1.050000 -1.050000 -0.040000
v 1.050000 -0.950000 -0.040000
v -1.050000 -1.050000 0.050000
v -1.050000 -0.950000 0.050000
v -1.050000 -1.050000 -0.050000
v -1.050000 -0.950000 -0.050000
v -0.950000 -1.050000 0.050000
v -0.950000 -0.950000 0.050000
v -0.950000 -1.050000 -0.050000
v -0.950000 -0.950000 -0.050000
v 0.950000 0.950000 0.050000
v 0.950000 1.050000 0.050000
v 0.950000 0.950000 -0.050000
v 0.950000 1.050000 -0.050000
v 1.050000 0.950000 0.050000
v 1.050000 1.050000 0.050000
v 1.050000 0.950000 -0.050000
v 1.050000 1.050000 -0.050000
v -1.050000 0.950000 0.050000
v -1.050000 1.050000 0.050000
v -1.050000 0.950000 -0.050000
v -1.050000 1.050000 -0.050000
v -0.950000 0.950000 0.050000
v -0.950000 1.050000 0.050000
v -0.950000 0.950000 -0.050000
v -0.950000 1.050000 -0.050000
v 1.000000 -0.910000 0.050000
v 1.000000 -0.890000 0.050000
v -1.000000 -0.910000 0.050000
v -1.000000 -0.890000 0.050000
v 1.000000 -0.910000 -0.050000
v 1.000000 -0.890000 -0.050000
v -1.000000 -0.910000 -0.050000
v -1.000000 -0.890000 -0.050000
v 1.000000 -0.810000 0.050000
v 1.000000 -0.790000 0.050000
v -1.000000 -0.810000 0.050000
v -1.000000 -0.790000 0.050000
v 1.000000 -0.810000 -0.050000
v 1.000000 -0.790000 -0.050000
v -1.000000 -0.810000 -0.050000
v -1.000000 -0.790000 -0.050000
v 1.000000 -0.710000 0.050000
v 1.000000 -0.690000 0.050000
v -1.000000 -0.710000 0.050000
v -1.000000 -0.690000 0.050000
v 1.000000 -0.710000 -0.050000
v 1.000000 -0.690000 -0.050000
v -1.000000 -0.710000 -0.050000
v -1.000000 -0.690000 -0.050000
v 1.000000 -0.610000 0.050000
v 1.000000 -0.590000 0.050000
v -1.000000 -0.610000 0.050000
v -1.000000 -0.590000 0.050000
v 1.000000 -0.610000 -0.050000
v 1.000000 -0.590000 -0.050000
v -1.000000 -0.610000 -0.050000
v -1.000000 -0.590000 -0.050000
v 1.000000 -0.510000 0.050000
v 1.000000 -0.490000 0.050000
v -1.000000 -0.510000 0.050000
v -1.000000 -0.490000 0.050000
v 1.000000 -0.510000 -0.050000
v 1.000000 -0.490000 -0.050000
v -1.000000 -0.510000 -0.050000
v -1.000000 -0.490000 -0.050000
v 1.000000 -0.410000 0.050000
v 1.000000 -0.390000 0.050000
v -1.000000 -0.410000 0.050000
v -1.000000 -0.390000 0.050000
v 1.000000 -0.410000 -0.050000
v 1.000000 -0.390000 -0.050000
v -1.000000 -0.410000 -0.050000
v -1.000000 -0.390000 -0.050000
v 1.000000 -0.310000 0.050000
v 1.000000 -0.290000 0.050000
v -1.000000 -0.310000 0.050000
v -1.000000 -0.290000 0.050000
v 1.000000 -0.310000 -0.050000
v 1.000000 -0.290000 -0.050000
v -1.000000 -0.310000 -0.050000
v -1.000000 -0.290000 -0.050000
v 1.000000 -0.210000 0.050000
v 1.000000 -0.190000 0.050000
v -1.000000 -0.210000 0.050000
v -1.000000 -0.190000 0.050000
v 1.000000 -0.210000 -0.050000
v 1.000000 -0.190000 -0.050000
v -1.000000 -0.210000 -0.050000
v -1.000000 -0.190000 -0.050000
v 1.000000 -0.110000 0.050000
v 1.000000 -0.090000 0.050000
v -1.000000 -0.110000 0.050000
v -1.000000 -0.090000 0.050000
v 1.000000 -0.110000 -0.050000
v 1.000000 -0.090000 -0.050000
v -1.000000 -0.110000 -0.050000
v -1.000000 -0.090000 -0.050000
v 1.000000 -0.010000 0.050000
v 1.000000 0.010000 0.050000
v -1.000000 -0.010000 0.050000
v -1.000000 0.010000 0.050000
v 1.000000 -0.010000 -0.050000
v 1.000000 0.010000 -0.050000
v -1.000000 -0.010000 -0.050000
v -1.000000 0.010000 -0.050000
v 1.000000 0.090000 0.050000
v 1.000000 0.110000 0.050000
v -1.000000 0.090000 0.050000
v -1.000000 0.110000 0.050000
v 1.000000 0.090000 -0.050000
v 1.000000 0.110000 -0.050000
v -1.000000 0.090000 -0.050000
v -1.000000 0.110000 -0.050000
v 1.000000 0.190000 0.050000
v 1.000000 0.210000 0.050000
v -1.000000 0.190000 0.050000
v -1.000000 0.210000 0.050000
v 1.000000 0.190000 -0.050000
v 1.000000 0.210000 -0.050000
v -1.000000 0.190000 -0.050000
v -1.000000 0.210000 -0.050000
v 1.000000 0.290000 0.050000
v 1.000000 0.310000 0.050000
v -1.000000 0.290000 0.050000
v -1.000000 0.310000 0.050000
v 1.000000 0.290000 -0.050000
v 1.000000 0.310000 -0.050000
v -1.000000 0.290000 -0.050000
v -1.000000 0.310000 -0.050000
v 1.000000 0.390000 0.050000
v 1.000000 0.410000 0.050000
v -1.000000 0.390000 0.050000
v -1.000000 0.410000 0.050000
v 1.000000 0.390000 -0.050000
v 1.000000 0.410000 -0.050000
v -1.000000 0.390000 -0.050000
v -1.000000 0.410000 -0.050000
v 1.000000 0.490000 0.050000
v 1.000000 0.510000 0.050000
v -1.000000 0.490000 0.050000
v -1.000000 0.510000 0.050000
v 1.000000 0.490000 -0.050000
v 1.000000 0.510000 -0.050000
v -1.000000 0.490000 -0.050000
v -1.000000 0.510000 -0.050000
v 1.000000 0.590000 0.050000
v 1.000000 0.610000 0.050000
v -1.000000 0.590000 0.050000
v -1.000000 0.610000 0.050000
v 1.000000 0.590000 -0.050000
v 1.000000 0.610000 -0.050000
v -1.000000 0.590000 -0.050000
v -1.000000 0.610000 -0.050000
v 1.000000 0.590000 0.050000
v 1.000000 0.610000 0.050000
v -1.000000 0.590000 0.050000
v -1.000000 0.610000 0.050000
v 1.000000 0.590000 -0.050000
v 1.000000 0.610000 -0.050000
v -1.000000 0.590000 -0.050000
v -1.000000 0.610000 -0.050000
v 1.000000 0.690000 0.050000
v 1.000000 0.710000 0.050000
v -1.000000 0.690000 0.050000
v -1.000000 0.710000 0.050000
v 1.000000 0.690000 -0.050000
v 1.000000 0.710000 -0.050000
v -1.000000 0.690000 -0.050000
v -1.000000 0.710000 -0.050000
v 1.000000 0.790000 0.050000
v 1.000000 0.810000 0.050000
v -1.000000 0.790000 0.050000
v -1.000000 0.810000 0.050000
v 1.000000 0.790000 -0.050000
v 1.000000 0.810000 -0.050000
v -1.000000 0.790000 -0.050000
v -1.000000 0.810000 -0.050000
v 1.000000 0.890000 0.050000
v 1.000000 0.910000 0.050000
v -1.000000 0.890000 0.050000
v -1.000000 0.910000 0.050000
v 1.000000 0.890000 -0.050000
v 1.000000 0.910000 -0.050000
v -1.000000 0.890000 -0.050000
v -1.000000 0.910000 -0.050000
vn -0.0000 -0.0000 1.0000
vn -0.0000 -1.0000 -0.0000
vn -1.0000 -0.0000 -0.0000
vn -0.0000 -0.0000 -1.0000
vn 1.0000 -0.0000 -0.0000
vn -0.0000 1.0000 -0.0000
vt 0.625000 0.500000
vt 0.875000 0.500000
vt 0.875000 0.750000
vt 0.625000 0.750000
vt 0.375000 0.750000
vt 0.625000 1.000000
vt 0.375000 1.000000
vt 0.375000 0.000000
vt 0.625000 0.000000
vt 0.625000 0.250000
vt 0.375000 0.250000
vt 0.125000 0.500000
vt 0.375000 0.500000
vt 0.125000 0.750000
s 0
usemtl Matériau.001
f 1/1/1 5/2/1 7/3/1 3/4/1
f 4/5/2 3/4/2 7/6/2 8/7/2
f 8/8/3 7/9/3 5/10/3 6/11/3
f 6/12/4 2/13/4 4/5/4 8/14/4
f 2/13/5 1/1/5 3/4/5 4/5/5
f 6/11/6 5/10/6 1/1/6 2/13/6
usemtl Matériau.002
f 9/8/3 10/9/3 12/10/3 11/11/3
f 11/11/6 12/10/6 16/1/6 15/13/6
f 15/13/5 16/1/5 14/4/5 13/5/5
f 13/5/2 14/4/2 10/6/2 9/7/2
f 11/12/4 15/13/4 13/5/4 9/14/4
f 16/1/1 12/2/1 10/3/1 14/4/1
usemtl Matériau.003
f 17/8/3 18/9/3 20/10/3 19/11/3
f 19/11/6 20/10/6 24/1/6 23/13/6
f 23/13/5 24/1/5 22/4/5 21/5/5
f 21/5/2 22/4/2 18/6/2 17/7/2
f 19/12/4 23/13/4 21/5/4 17/14/4
f 24/1/1 20/2/1 18/3/1 22/4/1
usemtl Matériau.004
f 25/8/3 26/9/3 28/10/3 27/11/3
f 27/11/6 28/10/6 32/1/6 31/13/6
f 31/13/5 32/1/5 30/4/5 29/5/5
f 29/5/2 30/4/2 26/6/2 25/7/2
f 27/12/4 31/13/4 29/5/4 25/14/4
f 32/1/1 28/2/1 26/3/1 30/4/1
usemtl Matériau.005
f 33/8/3 34/9/3 36/10/3 35/11/3
f 35/11/6 36/10/6 40/1/6 39/13/6
f 39/13/5 40/1/5 38/4/5 37/5/5
f 37/5/2 38/4/2 34/6/2 33/7/2
f 35/12/4 39/13/4 37/5/4 33/14/4
f 40/1/1 36/2/1 34/3/1 38/4/1
usemtl Matériau.006
f 41/8/3 42/9/3 44/10/3 43/11/3
f 43/11/6 44/10/6 48/1/6 47/13/6
f 47/13/5 48/1/5 46/4/5 45/5/5
f 45/5/2 46/4/2 42/6/2 41/7/2
f 43/12/4 47/13/4 45/5/4 41/14/4
f 48/1/1 44/2/1 42/3/1 46/4/1
usemtl Matériau.007
f 49/8/3 50/9/3 52/10/3 51/11/3
f 51/11/6 52/10/6 56/1/6 55/13/6
f 55/13/5 56/1/5 54/4/5 53/5/5
f 53/5/2 54/4/2 50/6/2 49/7/2
f 51/12/4 55/13/4 53/5/4 49/14/4
f 56/1/1 52/2/1 50/3/1 54/4/1
usemtl Matériau.008
f 57/8/3 58/9/3 60/10/3 59/11/3
f 59/11/6 60/10/6 64/1/6 63/13/6
f 63/13/5 64/1/5 62/4/5 61/5/5
f 61/5/2 62/4/2 58/6/2 57/7/2
f 59/12/4 63/13/4 61/5/4 57/14/4
f 64/1/1 60/2/1 58/3/1 62/4/1
usemtl Matériau.009
f 65/8/3 66/9/3 68/10/3 67/11/3
f 67/11/6 68/10/6 72/1/6 71/13/6
f 71/13/5 72/1/5 70/4/5 69/5/5
f 69/5/2 70/4/2 66/6/2 65/7/2
f 67/12/4 71/13/4 69/5/4 65/14/4
f 72/1/1 68/2/1 66/3/1 70/4/1
usemtl Matériau.010
f 73/8/3 74/9/3 76/10/3 75/11/3
f 75/11/6 76/10/6 80/1/6 79/13/6
f 79/13/5 80/1/5 78/4/5 77/5/5
f 77/5/2 78/4/2 74/6/2 73/7/2
f 75/12/4 79/13/4 77/5/4 73/14/4
f 80/1/1 76/2/1 74/3/1 78/4/1
usemtl Matériau.011
f 81/8/3 82/9/3 84/10/3 83/11/3
f 83/11/6 84/10/6 88/1/6 87/13/6
f 87/13/5 88/1/5 86/4/5 85/5/5
f 85/5/2 86/4/2 82/6/2 81/7/2
f 83/12/4 87/13/4 85/5/4 81/14/4
f 88/1/1 84/2/1 82/3/1 86/4/1
usemtl Matériau.043
f 89/8/3 90/9/3 92/10/3 91/11/3
f 91/11/6 92/10/6 96/1/6 95/13/6
f 95/13/5 96/1/5 94/4/5 93/5/5
f 93/5/2 94/4/2 90/6/2 89/7/2
f 91/12/4 95/13/4 93/5/4 89/14/4
f 96/1/1 92/2/1 90/3/1 94/4/1
usemtl Matériau.044
f 97/8/3 98/9/3 100/10/3 99/11/3
f 99/11/6 100/10/6 104/1/6 103/13/6
f 103/13/5 104/1/5 102/4/5 101/5/5
f 101/5/2 102/4/2 98/6/2 97/7/2
f 99/12/4 103/13/4 101/5/4 97/14/4
f 104/1/1 100/2/1 98/3/1 102/4/1
usemtl Matériau.045
f 105/8/3 106/9/3 108/10/3 107/11/3
f 107/11/6 108/10/6 112/1/6 111/13/6
f 111/13/5 112/1/5 110/4/5 109/5/5
f 109/5/2 110/4/2 106/6/2 105/7/2
f 107/12/4 111/13/4 109/5/4 105/14/4
f 112/1/1 108/2/1 106/3/1 110/4/1
usemtl Matériau.046
f 113/8/3 114/9/3 116/10/3 115/11/3
f 115/11/6 116/10/6 120/1/6 119/13/6
f 119/13/5 120/1/5 118/4/5 117/5/5
f 117/5/2 118/4/2 114/6/2 113/7/2
f 115/12/4 119/13/4 117/5/4 113/14/4
f 120/1/1 116/2/1 114/3/1 118/4/1
usemtl Matériau.047
f 121/8/3 122/9/3 124/10/3 123/11/3
f 123/11/6 124/10/6 128/1/6 127/13/6
f 127/13/5 128/1/5 126/4/5 125/5/5
f 125/5/2 126/4/2 122/6/2 121/7/2
f 123/12/4 127/13/4 125/5/4 121/14/4
f 128/1/1 124/2/1 122/3/1 126/4/1
usemtl Matériau.048
f 129/8/3 130/9/3 132/10/3 131/11/3
f 131/11/6 132/10/6 136/1/6 135/13/6
f 135/13/5 136/1/5 134/4/5 133/5/5
f 133/5/2 134/4/2 130/6/2 129/7/2
f 131/12/4 135/13/4 133/5/4 129/14/4
f 136/1/1 132/2/1 130/3/1 134/4/1
usemtl Matériau.049
f 137/8/3 138/9/3 140/10/3 139/11/3
f 139/11/6 140/10/6 144/1/6 143/13/6
f 143/13/5 144/1/5 142/4/5 141/5/5
f 141/5/2 142/4/2 138/6/2 137/7/2
f 139/12/4 143/13/4 141/5/4 137/14/4
f 144/1/1 140/2/1 138/3/1 142/4/1
usemtl Matériau.050
f 145/8/3 146/9/3 148/10/3 147/11/3
f 147/11/6 148/10/6 152/1/6 151/13/6
f 151/13/5 152/1/5 150/4/5 149/5/5
f 149/5/2 150/4/2 146/6/2 145/7/2
f 147/12/4 151/13/4 149/5/4 145/14/4
f 152/1/1 148/2/1 146/3/1 150/4/1
usemtl Matériau.051
f 153/8/3 154/9/3 156/10/3 155/11/3
f 155/11/6 156/10/6 160/1/6 159/13/6
f 159/13/5 160/1/5 158/4/5 157/5/5
f 157/5/2 158/4/2 154/6/2 153/7/2
f 155/12/4 159/13/4 157/5/4 153/14/4
f 160/1/1 156/2/1 154/3/1 158/4/1
usemtl Matériau.052
f 161/8/3 162/9/3 164/10/3 163/11/3
f 163/11/6 164/10/6 168/1/6 167/13/6
f 167/13/5 168/1/5 166/4/5 165/5/5
f 165/5/2 166/4/2 162/6/2 161/7/2
f 163/12/4 167/13/4 165/5/4 161/14/4
f 168/1/1 164/2/1 162/3/1 166/4/1
usemtl Matériau.034
f 169/8/3 170/9/3 172/10/3 171/11/3
f 171/11/4 172/10/4 176/1/4 175/13/4
f 175/13/5 176/1/5 174/4/5 173/5/5
f 173/5/1 174/4/1 170/6/1 169/7/1
f 171/12/2 175/13/2 173/5/2 169/14/2
f 176/1/6 172/2/6 170/3/6 174/4/6
f 177/8/3 178/9/3 180/10/3 179/11/3
f 179/11/4 180/10/4 184/1/4 183/13/4
f 183/13/5 184/1/5 182/4/5 181/5/5
f 181/5/1 182/4/1 178/6/1 177/7/1
f 179/12/2 183/13/2 181/5/2 177/14/2
f 184/1/6 180/2/6 178/3/6 182/4/6
f 185/8/3 186/9/3 188/10/3 187/11/3
f 187/11/4 188/10/4 192/1/4 191/13/4
f 191/13/5 192/1/5 190/4/5 189/5/5
f 189/5/1 190/4/1 186/6/1 185/7/1
f 187/12/2 191/13/2 189/5/2 185/14/2
f 192/1/6 188/2/6 186/3/6 190/4/6
f 193/8/3 194/9/3 196/10/3 195/11/3
f 195/11/4 196/10/4 200/1/4 199/13/4
f 199/13/5 200/1/5 198/4/5 197/5/5
f 197/5/1 198/4/1 194/6/1 193/7/1
f 195/12/2 199/13/2 197/5/2 193/14/2
f 200/1/6 196/2/6 194/3/6 198/4/6
usemtl Matériau.014
f 201/8/1 202/9/1 204/10/1 203/11/1
f 203/11/3 204/10/3 208/1/3 207/13/3
f 207/13/4 208/1/4 206/4/4 205/5/4
f 205/5/5 206/4/5 202/6/5 201/7/5
f 203/12/2 207/13/2 205/5/2 201/14/2
f 208/1/6 204/2/6 202/3/6 206/4/6
usemtl Matériau.015
f 209/8/1 210/9/1 212/10/1 211/11/1
f 211/11/3 212/10/3 216/1/3 215/13/3
f 215/13/4 216/1/4 214/4/4 213/5/4
f 213/5/5 214/4/5 210/6/5 209/7/5
f 211/12/2 215/13/2 213/5/2 209/14/2
f 216/1/6 212/2/6 210/3/6 214/4/6
usemtl Matériau.016
f 217/8/1 218/9/1 220/10/1 219/11/1
f 219/11/3 220/10/3 224/1/3 223/13/3
f 223/13/4 224/1/4 222/4/4 221/5/4
f 221/5/5 222/4/5 218/6/5 217/7/5
f 219/12/2 223/13/2 221/5/2 217/14/2
f 224/1/6 220/2/6 218/3/6 222/4/6
usemtl Matériau.017
f 225/8/1 226/9/1 228/10/1 227/11/1
f 227/11/3 228/10/3 232/1/3 231/13/3
f 231/13/4 232/1/4 230/4/4 229/5/4
f 229/5/5 230/4/5 226/6/5 225/7/5
f 227/12/2 231/13/2 229/5/2 225/14/2
f 232/1/6 228/2/6 226/3/6 230/4/6
usemtl Matériau.018
f 233/8/1 234/9/1 236/10/1 235/11/1
f 235/11/3 236/10/3 240/1/3 239/13/3
f 239/13/4 240/1/4 238/4/4 237/5/4
f 237/5/5 238/4/5 234/6/5 233/7/5
f 235/12/2 239/13/2 237/5/2 233/14/2
f 240/1/6 236/2/6 234/3/6 238/4/6
usemtl Matériau.019
f 241/8/1 242/9/1 244/10/1 243/11/1
f 243/11/3 244/10/3 248/1/3 247/13/3
f 247/13/4 248/1/4 246/4/4 245/5/4
f 245/5/5 246/4/5 242/6/5 241/7/5
f 243/12/2 247/13/2 245/5/2 241/14/2
f 248/1/6 244/2/6 242/3/6 246/4/6
usemtl Matériau.020
f 249/8/1 250/9/1 252/10/1 251/11/1
f 251/11/3 252/10/3 256/1/3 255/13/3
f 255/13/4 256/1/4 254/4/4 253/5/4
f 253/5/5 254/4/5 250/6/5 249/7/5
f 251/12/2 255/13/2 253/5/2 249/14/2
f 256/1/6 252/2/6 250/3/6 254/4/6
usemtl Matériau.021
f 257/8/1 258/9/1 260/10/1 259/11/1
f 259/11/3 260/10/3 264/1/3 263/13/3
f 263/13/4 264/1/4 262/4/4 261/5/4
f 261/5/5 262/4/5 258/6/5 257/7/5
f 259/12/2 263/13/2 261/5/2 257/14/2
f 264/1/6 260/2/6 258/3/6 262/4/6
usemtl Matériau.022
f 265/8/1 266/9/1 268/10/1 267/11/1
f 267/11/3 268/10/3 272/1/3 271/13/3
f 271/13/4 272/1/4 270/4/4 269/5/4
f 269/5/5 270/4/5 266/6/5 265/7/5
f 267/12/2 271/13/2 269/5/2 265/14/2
f 272/1/6 268/2/6 266/3/6 270/4/6
usemtl Matériau.023
f 273/8/1 274/9/1 276/10/1 275/11/1
f 275/11/3 276/10/3 280/1/3 279/13/3
f 279/13/4 280/1/4 278/4/4 277/5/4
f 277/5/5 278/4/5 274/6/5 273/7/5
f 275/12/2 279/13/2 277/5/2 273/14/2
f 280/1/6 276/2/6 274/3/6 278/4/6
usemtl Matériau.053
f 281/8/1 282/9/1 284/10/1 283/11/1
f 283/11/3 284/10/3 288/1/3 287/13/3
f 287/13/4 288/1/4 286/4/4 285/5/4
f 285/5/5 286/4/5 282/6/5 281/7/5
f 283/12/2 287/13/2 285/5/2 281/14/2
f 288/1/6 284/2/6 282/3/6 286/4/6
usemtl Matériau.027
f 289/8/1 290/9/1 292/10/1 291/11/1
f 291/11/3 292/10/3 296/1/3 295/13/3
f 295/13/4 296/1/4 294/4/4 293/5/4
f 293/5/5 294/4/5 290/6/5 289/7/5
f 291/12/2 295/13/2 293/5/2 289/14/2
f 296/1/6 292/2/6 290/3/6 294/4/6
usemtl Matériau.028
f 297/8/1 298/9/1 300/10/1 299/11/1
f 299/11/3 300/10/3 304/1/3 303/13/3
f 303/13/4 304/1/4 302/4/4 301/5/4
f 301/5/5 302/4/5 298/6/5 297/7/5
f 299/12/2 303/13/2 301/5/2 297/14/2
f 304/1/6 300/2/6 298/3/6 302/4/6
usemtl Matériau.029
f 305/8/1 306/9/1 308/10/1 307/11/1
f 307/11/3 308/10/3 312/1/3 311/13/3
f 311/13/4 312/1/4 310/4/4 309/5/4
f 309/5/5 310/4/5 306/6/5 305/7/5
f 307/12/2 311/13/2 309/5/2 305/14/2
f 312/1/6 308/2/6 306/3/6 310/4/6
usemtl Matériau.030
f 313/8/1 314/9/1 316/10/1 315/11/1
f 315/11/3 316/10/3 320/1/3 319/13/3
f 319/13/4 320/1/4 318/4/4 317/5/4
f 317/5/5 318/4/5 314/6/5 313/7/5
f 315/12/2 319/13/2 317/5/2 313/14/2
f 320/1/6 316/2/6 314/3/6 318/4/6
usemtl Matériau.031
f 321/8/1 322/9/1 324/10/1 323/11/1
f 323/11/3 324/10/3 328/1/3 327/13/3
f 327/13/4 328/1/4 326/4/4 325/5/4
f 325/5/5 326/4/5 322/6/5 321/7/5
f 323/12/2 327/13/2 325/5/2 321/14/2
f 328/1/6 324/2/6 322/3/6 326/4/6
usemtl Matériau.032
f 329/8/1 330/9/1 332/10/1 331/11/1
f 331/11/3 332/10/3 336/1/3 335/13/3
f 335/13/4 336/1/4 334/4/4 333/5/4
f 333/5/5 334/4/5 330/6/5 329/7/5
f 331/12/2 335/13/2 333/5/2 329/14/2
f 336/1/6 332/2/6 330/3/6 334/4/6
usemtl Matériau.033
f 337/8/1 338/9/1 340/10/1 339/11/1
f 339/11/3 340/10/3 344/1/3 343/13/3
f 343/13/4 344/1/4 342/4/4 341/5/4
f 341/5/5 342/4/5 338/6/5 337/7/5
f 339/12/2 343/13/2 341/5/2 337/14/2
f 344/1/6 340/2/6 338/3/6 342/4/6
usemtl Matériau.035
f 345/8/1 346/9/1 348/10/1 347/11/1
f 347/11/3 348/10/3 352/1/3 351/13/3
f 351/13/4 352/1/4 350/4/4 349/5/4
f 349/5/5 350/4/5 346/6/5 345/7/5
f 347/12/2 351/13/2 349/5/2 345/14/2
f 352/1/6 348/2/6 346/3/6 350/4/6
usemtl Matériau.036
f 353/8/1 354/9/1 356/10/1 355/11/1
f 355/11/3 356/10/3 360/1/3 359/13/3
f 359/13/4 360/1/4 358/4/4 357/5/4
f 357/5/5 358/4/5 354/6/5 353/7/5
f 355/12/2 359/13/2 357/5/2 353/14/2
f 360/1/6 356/2/6 354/3/6 358/4/6
