# Blender 3.6.1
# www.blender.org
mtllib phoneTest.mtl
o Cube
v 0.074776 0.247088 -0.126158
v -0.083370 0.125067 -0.136187
v 0.159110 0.126643 0.009418
v 0.000963 0.004622 -0.000611
v -0.013979 0.350064 0.020534
v -0.172125 0.228043 0.010505
v 0.070355 0.229618 0.156110
v -0.087792 0.107598 0.146081
vn 0.7907 0.6101 0.0501
vn 0.4217 -0.6022 0.6779
vn -0.4438 0.5149 0.7335
vn -0.7907 -0.6101 -0.0501
vn 0.4438 -0.5149 -0.7335
vn -0.4217 0.6022 -0.6779
vt 0.625000 0.500000
vt 0.875000 0.500000
vt 0.875000 0.750000
vt 0.625000 0.750000
vt 0.375000 0.750000
vt 0.625000 1.000000
vt 0.375000 1.000000
vt 0.375000 0.000000
vt 0.625000 0.000000
vt 0.625000 0.250000
vt 0.375000 0.250000
vt 0.125000 0.500000
vt 0.375000 0.500000
vt 0.125000 0.750000
s 0
usemtl Material
f 1/1/1 5/2/1 7/3/1 3/4/1
f 4/5/2 3/4/2 7/6/2 8/7/2
f 8/8/3 7/9/3 5/10/3 6/11/3
f 6/12/4 2/13/4 4/5/4 8/14/4
f 2/13/5 1/1/5 3/4/5 4/5/5
f 6/11/6 5/10/6 1/1/6 2/13/6
