# Blender 4.1.0
# www.blender.org
mtllib wallV4.mtl
o Cube
v 1.000000 -1.000000 -0.300000
v 1.000000 -1.000000 0.300000
v -1.000000 -1.000000 -0.300000
v -1.000000 -1.000000 0.300000
v 1.000000 0.893376 -0.300000
v -1.000000 0.893376 0.300000
v 1.000000 0.893376 0.300000
v -1.000000 0.893376 -0.300000
v 1.000000 0.799147 -0.300000
v 1.000000 0.799147 0.300000
v -1.000000 0.799147 -0.300000
v -1.000000 0.799147 0.300000
v 1.000000 0.755565 -0.300000
v 1.000000 0.755565 0.300000
v -1.000000 0.755565 -0.300000
v -1.000000 0.755565 0.300000
v -1.000000 0.799147 -0.325000
v 1.000000 0.799147 -0.325000
v 1.000000 0.755565 -0.325000
v -1.000000 0.755565 -0.325000
v -1.000000 0.755565 0.325000
v -1.000000 0.799147 0.325000
v 1.000000 0.799147 0.325000
v 1.000000 0.755565 0.325000
v -1.000000 0.893376 0.325000
v -1.000000 1.000000 0.325000
v 1.000000 1.000000 0.325000
v 1.000000 0.893376 0.325000
v -1.000000 1.000000 -0.325000
v 1.000000 1.000000 -0.325000
v 1.000000 0.893376 -0.325000
v -1.000000 0.893376 -0.325000
v 1.000000 0.857104 0.300000
v 1.000000 0.857113 -0.300000
v -1.000000 0.857094 0.300000
v -1.000000 0.857117 -0.300000
v 1.000000 0.824503 0.300000
v 1.000000 0.824503 -0.300000
v -1.000000 0.824503 -0.300000
v -1.000000 0.824499 0.300000
v -1.000000 -0.745540 0.300000
v -1.000000 -0.745550 -0.300000
v 1.000000 -0.745550 0.300000
v 1.000000 -0.745559 -0.300000
v 1.000000 -1.000000 -0.325000
v -1.000000 -1.000000 -0.325000
v 1.000000 -0.745559 -0.325000
v -1.000000 -0.745550 -0.325000
v 1.000000 -0.745550 0.325000
v 1.000000 -1.000000 0.325000
v -1.000000 -1.000000 0.325000
v -1.000000 -0.745540 0.325000
vn -0.0000 1.0000 -0.0000
vn -1.0000 -0.0000 -0.0000
vn -0.0000 -1.0000 -0.0000
vn -0.0000 -0.0000 -1.0000
vn -0.0000 -0.0000 1.0000
vn 1.0000 -0.0000 -0.0000
vt 0.012609 0.012609
vt 0.312397 0.337379
vt 0.012609 0.337379
vt 0.637402 0.324888
vt 0.599262 0.025101
vt 0.637402 0.025101
vt 0.337615 0.662385
vt 0.637402 0.362598
vt 0.637402 0.662385
vt 0.823709 0.662621
vt 0.836200 0.962408
vt 0.823709 0.962408
vt 0.755347 0.962408
vt 0.759147 0.662621
vt 0.759147 0.962408
vt 0.794690 0.962408
vt 0.798490 0.662621
vt 0.798490 0.962408
vt 0.873910 0.962408
vt 0.861419 0.662621
vt 0.873910 0.662621
vt 0.599261 0.324888
vt 0.974548 0.962408
vt 0.981081 0.662621
vt 0.981081 0.962408
vt 0.899129 0.662621
vt 0.911620 0.962408
vt 0.899129 0.962408
vt 0.936839 0.662621
vt 0.949330 0.962408
vt 0.936839 0.962408
vt 0.337615 0.987391
vt 0.344148 0.687603
vt 0.344148 0.987391
vt 0.963479 0.312397
vt 0.950988 0.012609
vt 0.963479 0.012609
vt 0.049249 0.674876
vt 0.042716 0.375089
vt 0.049249 0.375089
vt 0.662621 0.962408
vt 0.678603 0.662621
vt 0.678603 0.962408
vt 0.963479 0.637402
vt 0.950988 0.337615
vt 0.963479 0.337615
vt 0.703822 0.962408
vt 0.719804 0.662621
vt 0.719804 0.962408
vt 0.028592 0.674876
vt 0.012609 0.362598
vt 0.028592 0.375089
vt 0.789803 0.962408
vt 0.784366 0.662621
vt 0.789804 0.662621
vt 0.353597 0.324888
vt 0.337615 0.012609
vt 0.353597 0.025100
vt 0.750458 0.962408
vt 0.745023 0.662621
vt 0.750458 0.662621
vt 0.038915 0.674876
vt 0.034029 0.375089
vt 0.038915 0.375089
vt 0.794690 0.662621
vt 0.363921 0.025100
vt 0.359036 0.324888
vt 0.359033 0.025100
vt 0.755347 0.662621
vt 0.367722 0.324888
vt 0.367722 0.025100
vt 0.374254 0.025100
vt 0.887627 0.337615
vt 0.662621 0.637402
vt 0.662621 0.337615
vt 0.887629 0.312397
vt 0.662621 0.012609
vt 0.887630 0.012609
vt 0.274257 0.674876
vt 0.312397 0.375089
vt 0.312397 0.674876
vt 0.925769 0.312397
vt 0.925769 0.012609
vt 0.887629 0.637402
vt 0.925769 0.337615
vt 0.925769 0.637402
vt 0.337615 0.362598
vt 0.274256 0.375089
vt 0.312397 0.012609
vt 0.836200 0.662621
vt 0.861419 0.962408
vt 0.974548 0.662621
vt 0.911620 0.662621
vt 0.949330 0.662621
vt 0.337615 0.687603
vt 0.950988 0.312397
vt 0.049249 0.687367
vt 0.042716 0.687367
vt 0.042716 0.674876
vt 0.042716 0.362598
vt 0.049249 0.362598
vt 0.662621 0.662621
vt 0.950988 0.637402
vt 0.703822 0.662621
vt 0.034027 0.674876
vt 0.028592 0.687367
vt 0.012609 0.687367
vt 0.028592 0.362598
vt 0.784366 0.962408
vt 0.353597 0.337379
vt 0.337615 0.337379
vt 0.353597 0.012609
vt 0.745023 0.962408
vt 0.363922 0.324888
vt 0.374254 0.324888
vt 0.374254 0.337379
vt 0.367722 0.337379
vt 0.367722 0.012609
vt 0.374254 0.012609
vt 0.662621 0.312397
s 0
usemtl Material.002
f 26/1/1 30/2/1 29/3/1
f 4/4/2 42/5/2 3/6/2
f 1/7/3 4/8/3 3/9/3
f 8/10/3 31/11/3 5/12/3
f 39/13/4 9/14/4 11/15/4
f 37/16/5 12/17/5 10/18/5
f 12/19/1 23/20/1 10/21/1
f 42/5/2 46/6/2 3/6/2
f 4/4/2 52/22/2 41/22/2
f 17/23/4 19/24/4 20/25/4
f 9/26/1 17/27/1 11/28/1
f 15/29/3 19/30/3 13/31/3
f 23/32/5 21/33/5 24/34/5
f 14/35/3 21/36/3 16/37/3
f 13/38/6 10/39/6 14/40/6
f 27/41/5 25/42/5 28/43/5
f 7/44/3 25/45/3 6/46/3
f 29/47/4 31/48/4 32/49/4
f 5/50/6 27/51/6 7/52/6
f 33/53/5 6/54/5 35/55/5
f 6/56/2 29/57/2 8/58/2
f 36/59/4 5/60/4 34/61/4
f 38/62/6 33/63/6 37/64/6
f 37/16/5 35/55/5 40/65/5
f 39/66/2 35/67/2 36/68/2
f 39/13/4 34/61/4 38/69/4
f 12/70/2 11/71/2 15/72/2
f 41/73/5 14/74/5 16/75/5
f 42/76/4 13/77/4 44/78/4
f 44/79/6 2/80/6 1/81/6
f 46/82/4 47/78/4 45/83/4
f 44/78/1 48/76/1 42/76/1
f 1/81/6 47/79/6 44/79/6
f 3/9/3 45/7/3 1/7/3
f 49/84/5 51/85/5 50/86/5
f 2/87/3 51/8/3 4/8/3
f 43/88/6 50/80/6 2/80/6
f 41/73/1 49/84/1 43/84/1
f 26/1/1 27/89/1 30/2/1
f 4/4/2 41/22/2 42/5/2
f 1/7/3 2/87/3 4/8/3
f 8/10/3 32/90/3 31/11/3
f 39/13/4 38/69/4 9/14/4
f 37/16/5 40/65/5 12/17/5
f 12/19/1 22/91/1 23/20/1
f 42/5/2 48/5/2 46/6/2
f 4/4/2 51/4/2 52/22/2
f 17/23/4 18/92/4 19/24/4
f 9/26/1 18/93/1 17/27/1
f 15/29/3 20/94/3 19/30/3
f 23/32/5 22/95/5 21/33/5
f 14/35/3 24/96/3 21/36/3
f 13/38/6 19/97/6 18/98/6
f 9/99/6 38/62/6 37/64/6
f 13/38/6 18/98/6 9/99/6
f 43/88/6 44/79/6 13/38/6
f 23/100/6 24/101/6 14/40/6
f 14/40/6 43/88/6 13/38/6
f 13/38/6 9/99/6 10/39/6
f 9/99/6 37/64/6 10/39/6
f 10/39/6 23/100/6 14/40/6
f 27/41/5 26/102/5 25/42/5
f 7/44/3 28/103/3 25/45/3
f 29/47/4 30/104/4 31/48/4
f 7/52/6 33/63/6 34/105/6
f 5/50/6 31/106/6 30/107/6
f 7/52/6 34/105/6 5/50/6
f 27/51/6 28/108/6 7/52/6
f 5/50/6 30/107/6 27/51/6
f 33/53/5 7/109/5 6/54/5
f 8/58/2 36/68/2 6/56/2
f 36/68/2 35/67/2 6/56/2
f 6/56/2 25/110/2 26/111/2
f 29/57/2 32/112/2 8/58/2
f 6/56/2 26/111/2 29/57/2
f 36/59/4 8/113/4 5/60/4
f 38/62/6 34/105/6 33/63/6
f 37/16/5 33/53/5 35/55/5
f 39/66/2 40/114/2 35/67/2
f 39/13/4 36/59/4 34/61/4
f 15/72/2 42/5/2 41/22/2
f 16/115/2 21/116/2 22/117/2
f 15/72/2 41/22/2 16/115/2
f 17/118/2 20/119/2 15/72/2
f 40/114/2 39/66/2 11/71/2
f 11/71/2 17/118/2 15/72/2
f 15/72/2 16/115/2 12/70/2
f 16/115/2 22/117/2 12/70/2
f 12/70/2 40/114/2 11/71/2
f 41/73/5 43/84/5 14/74/5
f 42/76/4 15/120/4 13/77/4
f 44/79/6 43/88/6 2/80/6
f 46/82/4 48/76/4 47/78/4
f 44/78/1 47/78/1 48/76/1
f 1/81/6 45/81/6 47/79/6
f 3/9/3 46/9/3 45/7/3
f 49/84/5 52/73/5 51/85/5
f 2/87/3 50/87/3 51/8/3
f 43/88/6 49/88/6 50/80/6
f 41/73/1 52/73/1 49/84/1
