# Blender 4.1.0
# www.blender.org
mtllib wallV2.mtl
o Cube
v 1.000000 -1.000000 -0.300000
v 1.000000 -1.000000 0.300000
v -1.000000 -1.000000 -0.300000
v -1.000000 -1.000000 0.300000
v 1.000000 0.893376 -0.300000
v -1.000000 0.893376 0.300000
v 1.000000 0.893376 0.300000
v -1.000000 0.893376 -0.300000
v 1.000000 0.799147 -0.300000
v 1.000000 0.799147 0.300000
v -1.000000 0.799147 -0.300000
v -1.000000 0.799147 0.300000
v 1.000000 0.755565 -0.300000
v 1.000000 0.755565 0.300000
v -1.000000 0.755565 -0.300000
v -1.000000 0.755565 0.300000
v -1.000000 0.799147 -0.325000
v 1.000000 0.799147 -0.325000
v 1.000000 0.755565 -0.325000
v -1.000000 0.755565 -0.325000
v -1.000000 0.755565 0.325000
v -1.000000 0.799147 0.325000
v 1.000000 0.799147 0.325000
v 1.000000 0.755565 0.325000
v -1.000000 0.893376 0.325000
v -1.000000 1.000000 0.325000
v 1.000000 1.000000 0.325000
v 1.000000 0.893376 0.325000
v -1.000000 1.000000 -0.325000
v 1.000000 1.000000 -0.325000
v 1.000000 0.893376 -0.325000
v -1.000000 0.893376 -0.325000
vn -0.0000 1.0000 -0.0000
vn -1.0000 -0.0000 -0.0000
vn -0.0000 -1.0000 -0.0000
vn -0.0000 -0.0000 -1.0000
vn -0.0000 -0.0000 1.0000
vn 1.0000 -0.0000 -0.0000
vt 0.875000 0.750000
vt 0.625000 0.500000
vt 0.875000 0.500000
vt 0.611672 0.000000
vt 0.625000 0.250000
vt 0.611672 0.250000
vt 0.375000 0.500000
vt 0.125000 0.750000
vt 0.125000 0.500000
vt 0.611672 0.500000
vt 0.599893 0.500000
vt 0.599893 0.250000
vt 0.611672 0.750000
vt 0.599893 1.000000
vt 0.599893 0.750000
vt 0.594446 0.250000
vt 0.375000 0.250000
vt 0.594446 0.750000
vt 0.375000 1.000000
vt 0.375000 0.750000
vt 0.594446 0.500000
vt 0.594446 1.000000
vt 0.625000 0.750000
vt 0.611672 1.000000
vt 0.375000 0.000000
vt 0.594446 0.000000
vt 0.599893 0.000000
vt 0.625000 0.000000
vt 0.625000 1.000000
s 0
usemtl Material
f 26/1/1 30/2/1 29/3/1
f 6/4/2 29/5/2 8/6/2
f 1/7/3 4/8/3 3/9/3
f 8/6/3 31/10/3 5/10/3
f 8/6/4 9/11/4 11/12/4
f 7/13/5 12/14/5 10/15/5
f 12/14/1 23/15/1 10/15/1
f 15/16/4 1/7/4 3/17/4
f 14/18/5 4/19/5 2/20/5
f 17/12/4 19/21/4 20/16/4
f 9/11/1 17/12/1 11/12/1
f 15/16/3 19/21/3 13/21/3
f 23/15/5 21/22/5 24/18/5
f 14/18/3 21/22/3 16/22/3
f 5/10/6 30/2/6 7/13/6
f 27/23/5 25/24/5 28/13/5
f 7/13/3 25/24/3 6/24/3
f 29/5/4 31/10/4 32/6/4
f 26/1/1 27/23/1 30/2/1
f 3/17/2 4/25/2 16/26/2
f 16/26/2 21/26/2 22/27/2
f 16/26/2 22/27/2 12/27/2
f 15/16/2 3/17/2 16/26/2
f 17/12/2 20/16/2 15/16/2
f 11/12/2 17/12/2 15/16/2
f 15/16/2 16/26/2 12/27/2
f 6/4/2 25/4/2 26/28/2
f 15/16/2 12/27/2 11/12/2
f 12/27/2 6/4/2 11/12/2
f 6/4/2 26/28/2 29/5/2
f 29/5/2 32/6/2 8/6/2
f 8/6/2 11/12/2 6/4/2
f 1/7/3 2/20/3 4/8/3
f 8/6/3 32/6/3 31/10/3
f 8/6/4 5/10/4 9/11/4
f 7/13/5 6/24/5 12/14/5
f 12/14/1 22/14/1 23/15/1
f 15/16/4 13/21/4 1/7/4
f 14/18/5 16/22/5 4/19/5
f 17/12/4 18/11/4 19/21/4
f 9/11/1 18/11/1 17/12/1
f 15/16/3 20/16/3 19/21/3
f 23/15/5 22/14/5 21/22/5
f 14/18/3 24/18/3 21/22/3
f 13/21/6 19/21/6 18/11/6
f 13/21/6 18/11/6 9/11/6
f 2/20/6 1/7/6 13/21/6
f 23/15/6 24/18/6 14/18/6
f 14/18/6 2/20/6 13/21/6
f 14/18/6 13/21/6 9/11/6
f 10/15/6 23/15/6 14/18/6
f 27/23/6 28/13/6 7/13/6
f 10/15/6 14/18/6 9/11/6
f 30/2/6 27/23/6 7/13/6
f 7/13/6 10/15/6 9/11/6
f 5/10/6 31/10/6 30/2/6
f 7/13/6 9/11/6 5/10/6
f 27/23/5 26/29/5 25/24/5
f 7/13/3 28/13/3 25/24/3
f 29/5/4 30/2/4 31/10/4
